<svg width="24" height="24" viewBox="0 0 24 24" fill="none" xmlns="http://www.w3.org/2000/svg">
<path d="M7 6.75H8V6.75L7 6.75ZM7.3806 9.14177L8.32984 8.82722L7.3806 9.14177ZM8.46447 11.1694L7.6836 11.7941L8.46447 11.1694ZM13.9134 12.5242L13.4536 11.6362L13.9134 12.5242ZM17 6.75H16H17ZM17 3H18C18 2.44772 17.5523 2 17 2V3ZM7 3V2C6.73478 2 6.48043 2.10536 6.29289 2.29289C6.10536 2.48043 6 2.73478 6 3L7 3ZM17 4C16.4477 4 16 4.44772 16 5C16 5.55228 16.4477 6 17 6V4ZM21 5H22C22 4.44772 21.5523 4 21 4V5ZM15.6661 10C15.1138 10 14.6661 10.4477 14.6661 11C14.6661 11.5523 15.1138 12 15.6661 12V10ZM3 5V4C2.44772 4 2 4.44772 2 5H3ZM7 6C7.55228 6 8 5.55228 8 5C8 4.44772 7.55228 4 7 4V6ZM3.22836 7.91342L2.25788 8.15461H2.25788L3.22836 7.91342ZM8.33394 12C8.88622 12 9.33394 11.5523 9.33394 11C9.33394 10.4477 8.88622 10 8.33394 10V12ZM16 22C16.5523 22 17 21.5523 17 21C17 20.4477 16.5523 20 16 20V22ZM8 20C7.44772 20 7 20.4477 7 21C7 21.5523 7.44772 22 8 22V20ZM11 20H13V18H11V20ZM13 20H15C15 18.8954 14.1046 18 13 18V20ZM11 18C9.89543 18 9 18.8954 9 20H11V18ZM13 20V21H15V20H13ZM9 20V21H11V20H9ZM6 6.75C6 7.67468 6.14554 8.59379 6.43136 9.45632L8.32984 8.82722C8.11311 8.17318 8 7.46684 8 6.75H6ZM6.43136 9.45632C6.71713 10.3187 7.13987 11.1145 7.6836 11.7941L9.24534 10.5447C8.86048 10.0637 8.54663 9.48142 8.32984 8.82722L6.43136 9.45632ZM7.6836 11.7941C8.22753 12.474 8.88529 13.0284 9.62679 13.4123L10.5464 11.6362C10.0746 11.392 9.62998 11.0255 9.24534 10.5447L7.6836 11.7941ZM9.62679 13.4123C10.3696 13.7969 11.1768 14 12 14V12C11.51 12 11.0168 11.8798 10.5464 11.6362L9.62679 13.4123ZM12 14C12.8232 14 13.6304 13.7969 14.3732 13.4123L13.4536 11.6362C12.9832 11.8798 12.49 12 12 12V14ZM14.3732 13.4123C15.1147 13.0283 15.7725 12.474 16.3164 11.7941L14.7547 10.5447C14.37 11.0255 13.9254 11.392 13.4536 11.6362L14.3732 13.4123ZM16.3164 11.7941C16.8601 11.1144 17.2829 10.3187 17.5686 9.45632L15.6702 8.82722C15.4534 9.48142 15.1395 10.0637 14.7547 10.5447L16.3164 11.7941ZM17.5686 9.45632C17.8545 8.59379 18 7.67468 18 6.75H16C16 7.46684 15.8869 8.17318 15.6702 8.82722L17.5686 9.45632ZM18 6.75V3H16V6.75H18ZM8 6.75L8 3L6 3L6 6.75L8 6.75ZM7 4L17 4V2L7 2V4ZM17 6H21V4H17V6ZM20 6C20 6.57941 19.9314 7.14837 19.8012 7.67223L21.7421 8.15461C21.9135 7.46521 22 6.73381 22 6H20ZM19.8012 7.67223C19.6707 8.19718 19.4842 8.65369 19.2638 9.02104L20.9788 10.05C21.3156 9.48879 21.5711 8.84291 21.7421 8.15461L19.8012 7.67223ZM19.2638 9.02104C19.0425 9.38985 18.8033 9.64224 18.5799 9.79645L19.7162 11.4423C20.2207 11.094 20.643 10.6098 20.9788 10.05L19.2638 9.02104ZM18.5799 9.79645C18.3617 9.94712 18.1666 10 18 10V12C18.6213 12 19.2065 11.7942 19.7162 11.4423L18.5799 9.79645ZM22 6V5H20V6H22ZM18 10H15.6661V12H18V10ZM3 6H7V4H3V6ZM6 10C5.83341 10 5.63832 9.94712 5.42007 9.79645L4.28383 11.4423C4.79353 11.7942 5.37866 12 6 12V10ZM5.42007 9.79645C5.19669 9.64224 4.95746 9.38985 4.73617 9.02104L3.02119 10.05C3.35705 10.6098 3.77926 11.094 4.28383 11.4423L5.42007 9.79645ZM4.73617 9.02104C4.51576 8.65369 4.32931 8.19718 4.19884 7.67223L2.25788 8.15461C2.42895 8.84291 2.68444 9.48879 3.02119 10.05L4.73617 9.02104ZM4.19884 7.67223C4.06865 7.14837 4 6.57941 4 6H2C2 6.73381 2.08655 7.46521 2.25788 8.15461L4.19884 7.67223ZM4 6V5H2V6H4ZM6 12H8.33394V10H6V12ZM11 13V21H13V13H11ZM12 22H16V20H12V22ZM12 20H8V22H12V20Z" fill="white" fill-opacity="0.94"/>
</svg>
